<svg width="32" height="32" viewBox="0 0 32 32" fill="none" xmlns="http://www.w3.org/2000/svg">
  <!-- Rounded Square Background -->
  <rect width="32" height="32" rx="8" fill="white"/>
  
  <!-- "DS" Monogram -->
  <g filter="url(#glow)">
    <!-- D shape -->
    <path d="M8 10H14C17.5 10 19 12 19 15C19 18 17.5 20 14 20H8V10ZM10 12V18H14C16 18 17 17 17 15C17 13 16 12 14 12H10Z" fill="#F4564A"/>
    <!-- S shape -->
    <path d="M20 20C20 22 21.5 23 23.5 23C25.5 23 27 22 27 20C27 18.5 26 17.5 24 17L23 16.75C21.5 16.5 21 16 21 15C21 14 22 13 23.5 13C25 13 26 14 26 16H28C28 13 26.5 11 23.5 11C20.5 11 19 13 19 15C19 16.5 20 17.5 22 18L23 18.25C24.5 18.5 25 19 25 20C25 21 24 22 22.5 22C21 22 20 21 20 19H20Z" fill="#F4564A"/>
  </g>

  <!-- Accent Detail Line -->
  <rect x="8" y="24" width="16" height="1.5" rx="0.75" fill="#F4564A" fill-opacity="0.4"/>

  <defs>
    <filter id="glow" x="6" y="8" width="24" height="18" filterUnits="userSpaceOnUse" color-interpolation-filters="sRGB">
      <feFlood flood-opacity="0" result="BackgroundImageFix"/>
      <feBlend mode="normal" in="SourceGraphic" in2="BackgroundImageFix" result="shape"/>
      <feGaussianBlur stdDeviation="0.5" result="effect1_foregroundBlur_0_1"/>
    </filter>
  </defs>
</svg>
